<svg width="16" height="16" viewBox="0 0 16 16" fill="none" xmlns="http://www.w3.org/2000/svg">
<path d="M3.63352 10.6667C3.16685 10.6667 2.7473 10.5167 2.37485 10.2167C2.00241 9.91667 1.76641 9.53333 1.66685 9.06667L1.18352 6.83333H1.11685C0.927962 6.85555 0.764185 6.80555 0.625518 6.68333C0.486851 6.56111 0.406185 6.40555 0.383518 6.21667C0.360851 6.02778 0.41374 5.86667 0.542185 5.73333C0.670629 5.6 0.828851 5.52222 1.01685 5.5C1.70574 5.44444 2.30574 5.40289 2.81685 5.37533C3.32796 5.34778 3.79463 5.33378 4.21685 5.33333C4.93907 5.33333 5.52241 5.36667 5.96685 5.43333C6.4113 5.5 6.8113 5.61667 7.16685 5.78333C7.32241 5.86111 7.46974 5.91667 7.60885 5.95C7.74796 5.98333 7.87841 6 8.00018 6C8.12196 6 8.24152 5.98333 8.35885 5.95C8.47618 5.91667 8.61218 5.86667 8.76685 5.8C9.13352 5.63333 9.55574 5.514 10.0335 5.442C10.5113 5.37 11.1446 5.33378 11.9335 5.33333C12.4446 5.33333 12.9835 5.34733 13.5502 5.37533C14.1169 5.40333 14.6002 5.43933 15.0002 5.48333C15.1891 5.50555 15.3446 5.58333 15.4669 5.71667C15.5891 5.85 15.6391 6.01111 15.6169 6.2C15.5946 6.38889 15.5169 6.54444 15.3835 6.66667C15.2502 6.78889 15.0891 6.83889 14.9002 6.81667H14.8335L14.3335 9.08333C14.2335 9.55 14.0002 9.93067 13.6335 10.2253C13.2669 10.52 12.8502 10.6671 12.3835 10.6667H10.9002C10.4335 10.6667 10.0224 10.5249 9.66685 10.2413C9.3113 9.95778 9.07796 9.594 8.96685 9.15L8.51685 7.36667H7.50018L7.05018 9.15C6.92796 9.60555 6.68907 9.97222 6.33352 10.25C5.97796 10.5278 5.57241 10.6667 5.11685 10.6667H3.63352ZM2.96685 8.8C3.00018 8.95555 3.07796 9.08333 3.20018 9.18333C3.32241 9.28333 3.4613 9.33333 3.61685 9.33333H5.10018C5.25574 9.33333 5.39463 9.286 5.51685 9.19133C5.63907 9.09666 5.71685 8.97733 5.75018 8.83333L6.26685 6.81667C5.96685 6.76111 5.62796 6.72489 5.25019 6.708C4.87241 6.69111 4.52796 6.68289 4.21685 6.68333C3.9613 6.68333 3.68641 6.686 3.39218 6.69133C3.09796 6.69667 2.82285 6.71067 2.56685 6.73333L2.96685 8.8ZM10.2502 8.83333C10.2835 8.97778 10.3613 9.09733 10.4835 9.192C10.6057 9.28667 10.7446 9.33378 10.9002 9.33333H12.3835C12.5391 9.33333 12.678 9.28333 12.8002 9.18333C12.9224 9.08333 13.0002 8.95555 13.0335 8.8L13.4669 6.71667C13.2446 6.70555 12.9891 6.69733 12.7002 6.692C12.4113 6.68667 12.1557 6.68378 11.9335 6.68333C11.6002 6.68333 11.2309 6.69178 10.8255 6.70867C10.4202 6.72555 10.0562 6.76155 9.73352 6.81667L10.2502 8.83333Z" fill="currentColor"/>
</svg>
