<svg width="40" height="40" viewBox="0 0 40 40" fill="none" xmlns="http://www.w3.org/2000/svg">
<path d="M17.9688 3.75L17.7338 4.72625C17.3588 6.41125 14.9412 9.185 12.4612 12.5775C9.98 15.9713 7.5 20.2 7.5 25.5087C7.5 28.0138 8.26625 30.69 10.1562 32.775C12.0462 34.8587 15.0587 36.25 19.1412 36.25C19.3212 36.25 19.4725 36.2163 19.6488 36.2113C19.7662 36.2163 19.8775 36.25 20 36.25C20.3813 36.25 20.7375 36.2062 21.0938 36.1712C21.2013 36.1625 21.2987 36.1425 21.4062 36.1338C25.5912 35.7863 28.3687 34.4963 30.0788 32.5775C32.085 30.3275 32.5 27.4713 32.5 25C32.5 19.4187 29.2875 14.2288 26.1712 10.39C23.055 6.55125 19.9213 4.02375 19.9213 4.02375L19.5725 3.75H17.9688ZM19.375 6.875C20.3862 7.7625 22.09 9.37 24.2188 11.9925C27.1588 15.615 30 20.415 30 25C30 27.1925 29.6138 29.3162 28.2025 30.8988C27.8759 31.2644 27.509 31.5919 27.1087 31.875C27.7838 29.9263 27.6362 27.71 27.1875 25.5075C26.675 22.9937 25.7025 20.4688 24.765 18.4375C23.8275 16.4062 23.0275 14.9712 22.3438 14.18L21.9925 13.75H19.57L20.0387 15.3512C21.3475 19.605 20.6587 22.5 19.9225 23.3587C19.5562 23.7887 19.395 23.8275 19.0225 23.7113C18.6525 23.5938 17.9838 23.1112 17.3438 21.9137L16.4062 20.1562L15.2338 21.7575C12.8963 24.9075 11.9962 28.36 12.7737 31.25C12.8412 31.5037 12.9487 31.7525 13.0475 31.9925C12.6823 31.7242 12.3422 31.4234 12.0312 31.0938C10.635 29.5562 10 27.5 10 25.5075C10 20.9825 12.1287 17.295 14.4925 14.0625C16.4163 11.4313 18.2913 9.20875 19.375 6.875ZM23.2037 21.5238C23.7838 22.9937 24.4137 24.4775 24.7262 26.015C25.1812 28.2525 25.1712 30.2975 24.5312 31.6025C24.0525 32.5775 23.31 33.2962 21.7963 33.5938C21.6313 33.6275 21.435 33.6475 21.25 33.6725C20.8588 33.7062 20.43 33.735 20 33.75C19.8875 33.75 19.795 33.755 19.6875 33.75C16.9825 33.6625 15.6838 32.4562 15.195 30.625C14.79 29.1162 15.3175 27.0125 16.445 24.8825C17.0025 25.4587 17.5925 25.8787 18.2812 26.0938C19.5562 26.4937 20.9762 26.0063 21.8363 25C22.5737 24.1362 23.0087 22.94 23.2037 21.5238Z" fill="currentColor"/>
</svg>
