<svg width="16" height="16" viewBox="0 0 16 16" fill="none" xmlns="http://www.w3.org/2000/svg">
<path d="M7.3335 11.3333H8.66683V8.66667H11.3335V7.33333H8.66683V4.66667H7.3335V7.33333H4.66683V8.66667H7.3335V11.3333ZM8.00016 14.6667C7.07794 14.6667 6.21128 14.4916 5.40016 14.1413C4.58905 13.7911 3.8835 13.3162 3.2835 12.7167C2.6835 12.1171 2.20861 11.4116 1.85883 10.6C1.50905 9.78844 1.33394 8.92178 1.3335 8C1.33305 7.07822 1.50816 6.21155 1.85883 5.4C2.2095 4.58844 2.68439 3.88289 3.2835 3.28333C3.88261 2.68378 4.58816 2.20889 5.40016 1.85867C6.21216 1.50844 7.07883 1.33333 8.00016 1.33333C8.9215 1.33333 9.78816 1.50844 10.6002 1.85867C11.4122 2.20889 12.1177 2.68378 12.7168 3.28333C13.3159 3.88289 13.7911 4.58844 14.1422 5.4C14.4933 6.21155 14.6682 7.07822 14.6668 8C14.6655 8.92178 14.4904 9.78844 14.1415 10.6C13.7926 11.4116 13.3177 12.1171 12.7168 12.7167C12.1159 13.3162 11.4104 13.7913 10.6002 14.142C9.78994 14.4927 8.92327 14.6676 8.00016 14.6667Z" fill="currentColor"/>
</svg>
