<svg width="25" height="25" viewBox="0 0 25 25" fill="none" xmlns="http://www.w3.org/2000/svg">
<path d="M12.5 3.56177C7.53725 3.56177 3.5 7.59902 3.5 12.5618C3.5 17.5245 7.53725 21.5618 12.5 21.5618C17.4628 21.5618 21.5 17.5245 21.5 12.5618C21.5 7.59902 17.4628 3.56177 12.5 3.56177ZM12.5 5.06177C16.6512 5.06177 20 8.41052 20 12.5618C20 16.713 16.6512 20.0618 12.5 20.0618C8.34875 20.0618 5 16.713 5 12.5618C5 8.41052 8.34875 5.06177 12.5 5.06177ZM11.75 6.56177V13.3118H17V11.8118H13.25V6.56177H11.75Z" fill="#444444"/>
</svg>
