<svg width="24" height="25" viewBox="0 0 24 25" fill="none" xmlns="http://www.w3.org/2000/svg">
<path d="M12 2.81177C6.624 2.81177 2.25 7.18577 2.25 12.5618C2.25 17.9378 6.624 22.3118 12 22.3118C17.376 22.3118 21.75 17.9378 21.75 12.5618C21.75 7.18577 17.376 2.81177 12 2.81177ZM12 4.31177C16.5645 4.31177 20.25 7.99727 20.25 12.5618C20.25 17.1263 16.5645 20.8118 12 20.8118C7.4355 20.8118 3.75 17.1263 3.75 12.5618C3.75 7.99727 7.4355 4.31177 12 4.31177ZM12 6.56177C9.9375 6.56177 8.25 8.24927 8.25 10.3118C8.25 11.4488 8.78025 12.459 9.58575 13.1475C8.73086 13.5902 8.01416 14.2595 7.51402 15.0821C7.01389 15.9047 6.74958 16.849 6.75 17.8118H8.25C8.25 15.732 9.92025 14.0618 12 14.0618C14.0798 14.0618 15.75 15.732 15.75 17.8118H17.25C17.25 15.7868 16.1017 14.0243 14.4142 13.1475C15.2197 12.459 15.75 11.4488 15.75 10.3118C15.75 8.24927 14.0625 6.56177 12 6.56177ZM12 8.06177C13.251 8.06177 14.25 9.06077 14.25 10.3118C14.25 11.5628 13.251 12.5618 12 12.5618C10.749 12.5618 9.75 11.5628 9.75 10.3118C9.75 9.06077 10.749 8.06177 12 8.06177Z" fill="#444444"/>
</svg>
