<svg width="16" height="16" viewBox="0 0 16 16" fill="none" xmlns="http://www.w3.org/2000/svg">
<path d="M8.00016 14L7.0335 13.1333C5.91127 12.1222 4.9835 11.25 4.25016 10.5167C3.51683 9.78333 2.9335 9.12489 2.50016 8.54133C2.06683 7.95778 1.76416 7.42178 1.59216 6.93333C1.42016 6.44489 1.33394 5.94489 1.3335 5.43333C1.3335 4.38889 1.6835 3.51667 2.3835 2.81667C3.0835 2.11667 3.95572 1.76667 5.00016 1.76667C5.57794 1.76667 6.12794 1.88889 6.65016 2.13333C7.17238 2.37778 7.62238 2.72222 8.00016 3.16667C8.37794 2.72222 8.82794 2.37778 9.35016 2.13333C9.87238 1.88889 10.4224 1.76667 11.0002 1.76667C12.0446 1.76667 12.9168 2.11667 13.6168 2.81667C14.3168 3.51667 14.6668 4.38889 14.6668 5.43333C14.6668 5.94444 14.5808 6.44444 14.4088 6.93333C14.2368 7.42222 13.9339 7.95822 13.5002 8.54133C13.0664 9.12444 12.4831 9.78289 11.7502 10.5167C11.0173 11.2504 10.0895 12.1227 8.96683 13.1333L8.00016 14Z" fill="currentColor"/>
</svg>
