<svg width="64" height="64" viewBox="0 0 64 64" fill="none" xmlns="http://www.w3.org/2000/svg">
<path d="M28.75 6L28.374 7.562C27.774 10.258 23.906 14.696 19.938 20.124C15.968 25.554 12 32.32 12 40.814C12 44.822 13.226 49.104 16.25 52.44C19.274 55.774 24.094 58 30.626 58C30.914 58 31.156 57.946 31.438 57.938C31.626 57.946 31.804 58 32 58C32.61 58 33.18 57.93 33.75 57.874C33.922 57.86 34.078 57.828 34.25 57.814C40.946 57.258 45.39 55.194 48.126 52.124C51.336 48.524 52 43.954 52 40C52 31.07 46.86 22.766 41.874 16.624C36.888 10.482 31.874 6.438 31.874 6.438L31.316 6H28.75ZM31 11C32.618 12.42 35.344 14.992 38.75 19.188C43.454 24.984 48 32.664 48 40C48 43.508 47.382 46.906 45.124 49.438C44.6014 50.023 44.0144 50.547 43.374 51C44.454 47.882 44.218 44.336 43.5 40.812C42.68 36.79 41.124 32.75 39.624 29.5C38.124 26.25 36.844 23.954 35.75 22.688L35.188 22H31.312L32.062 24.562C34.156 31.368 33.054 36 31.876 37.374C31.29 38.062 31.032 38.124 30.436 37.938C29.844 37.75 28.774 36.978 27.75 35.062L26.25 32.25L24.374 34.812C20.634 39.852 19.194 45.376 20.438 50C20.546 50.406 20.718 50.804 20.876 51.188C20.2917 50.7588 19.7474 50.2775 19.25 49.75C17.016 47.29 16 44 16 40.812C16 33.572 19.406 27.672 23.188 22.5C26.266 18.29 29.266 14.734 31 11ZM37.126 34.438C38.054 36.79 39.062 39.164 39.562 41.624C40.29 45.204 40.274 48.476 39.25 50.564C38.484 52.124 37.296 53.274 34.874 53.75C34.61 53.804 34.296 53.836 34 53.876C33.374 53.93 32.688 53.976 32 54C31.82 54 31.672 54.008 31.5 54C27.172 53.86 25.094 51.93 24.312 49C23.664 46.586 24.508 43.22 26.312 39.812C27.204 40.734 28.148 41.406 29.25 41.75C31.29 42.39 33.562 41.61 34.938 40C36.118 38.618 36.814 36.704 37.126 34.438Z" fill="#1B1A1A"/>
</svg>
